<svg xmlns="http://www.w3.org/2000/svg" viewBox="0 0 64 64" role="img" aria-label="BloomBox">
  <rect width="64" height="64" rx="22" fill="#183229"/>
  <path d="M24 14h10.5c9 0 14.5 4 14.5 11.1 0 4.3-2.4 7.5-6.2 9.1 5 1.3 7.8 4.8 7.8 9.8C50.6 52 44.7 56 34.4 56H24V14Zm10 17c5.4 0 8.1-1.8 8.1-5.5 0-3.6-2.7-5.3-8.1-5.3h-3.1V31H34Zm.7 18.8c6 0 9-2 9-6.2 0-4.1-3-6.1-9-6.1h-3.8v12.3h3.8Z" fill="#faf8f2"/>
  <path d="M19 16c-5 2.2-8 6.4-8.6 12.4 4.9-.4 8.8-2.5 11.5-6.5L19 16Z" fill="#e66c58"/>
</svg>
